<svg version="1.1" id="Layer_1" xmlns="http://www.w3.org/2000/svg" xmlns:xlink="http://www.w3.org/1999/xlink" x="0px" y="0px"
	 width="100%" viewBox="0 0 1024 1024" enable-background="new 0 0 1024 1024" xml:space="preserve">
<path fill="#000000" opacity="1.000000" stroke="none" 
	d="
M319.163910,571.792236 
	C328.313507,571.792603 336.987213,572.007629 345.642853,571.705444 
	C349.948853,571.555115 351.828979,573.162659 352.935944,577.234009 
	C360.271423,604.212646 367.806427,631.136902 375.288300,658.075684 
	C375.769012,659.806396 376.348602,661.509705 377.317780,664.626709 
	C380.986298,651.866394 384.346405,640.478943 387.528137,629.041870 
	C392.390228,611.564209 397.171967,594.063721 401.883484,576.544922 
	C402.796204,573.151001 404.437347,571.602539 408.175537,571.703308 
	C417.168762,571.945923 426.174805,571.916626 435.171051,571.748840 
	C439.103485,571.675537 440.373169,573.230652 440.362885,577.070007 
	C440.267090,612.901367 440.260773,648.733215 440.364197,684.564514 
	C440.375397,688.445312 438.997620,690.045654 435.165222,689.934082 
	C430.835999,689.808105 426.488983,689.723145 422.169952,689.971863 
	C417.490509,690.241272 415.721893,688.539673 415.760010,683.660095 
	C415.959106,658.163147 415.866913,632.663940 415.875946,607.165527 
	C415.876312,606.180725 415.875977,605.195923 415.609436,604.156616 
	C409.474426,627.138306 401.960754,649.682922 395.271942,672.474792 
	C393.639069,678.038696 393.600586,685.056335 389.383514,688.615601 
	C385.039795,692.281921 378.155182,689.705994 372.396698,689.882874 
	C363.985657,690.141113 363.964325,689.956421 361.523376,681.934753 
	C353.673309,656.136780 345.032593,630.571472 338.661133,604.337341 
	C338.596497,604.071289 338.294800,603.862732 338.171844,603.711121 
	C338.171844,630.211182 338.058716,656.783020 338.272217,683.352234 
	C338.312439,688.358032 336.831512,690.387451 331.752686,689.993774 
	C327.777496,689.685547 323.737671,689.697815 319.763397,690.020874 
	C314.827698,690.422058 313.563141,688.312683 313.593903,683.631042 
	C313.774475,656.133545 313.687744,628.634216 313.689728,601.135559 
	C313.690277,593.135925 313.811646,585.133484 313.628815,577.138000 
	C313.543518,573.409119 314.615967,571.331238 319.163910,571.792236 
z"/>
<path fill="#000000" opacity="1.000000" stroke="none" 
	d="
M479.247223,510.635925 
	C479.448853,514.043945 477.867188,517.870361 481.548737,519.532776 
	C485.086487,521.130188 487.936798,518.575439 490.482910,516.436646 
	C494.748077,512.853699 498.108978,508.672241 499.618988,503.072693 
	C504.134583,486.327789 510.944550,470.351501 516.324829,453.893677 
	C517.202454,451.209045 518.450134,448.453827 518.471497,445.722961 
	C518.509338,440.882690 521.021362,439.119232 525.235107,438.961365 
	C530.136597,438.777802 533.784485,441.890442 534.181946,446.533112 
	C534.529358,450.592346 533.415466,454.496490 532.168640,458.275757 
	C529.724060,465.685852 527.013184,473.008057 524.925598,480.810669 
	C530.788818,477.136688 535.559570,472.325897 539.592712,466.829224 
	C541.415649,464.344727 542.537415,461.410706 546.486572,463.234650 
	C550.323425,465.006653 552.561218,469.286072 551.416992,473.072815 
	C550.465881,476.220184 548.389160,478.574799 545.863220,480.587646 
	C541.810608,483.816986 537.531433,486.734100 532.889832,489.010223 
	C529.716125,490.566498 529.159851,492.253143 531.250793,495.160065 
	C535.417297,500.952423 539.408447,506.870911 543.823120,513.244202 
	C542.120178,497.191193 547.149414,484.130402 557.861877,473.436890 
	C565.090576,466.221008 572.177979,465.533508 580.974121,469.870056 
	C582.410583,469.920013 582.736572,468.499847 583.635193,467.835724 
	C586.974060,465.367889 590.470032,465.185577 593.871643,467.452515 
	C598.006775,470.208313 598.923828,474.398346 597.900269,478.935120 
	C595.869873,487.934998 591.617310,496.107483 587.990417,504.509521 
	C587.160828,506.431427 585.669067,508.237640 586.658569,510.926758 
	C590.352417,509.297394 592.174805,506.125214 593.397888,502.814972 
	C596.686096,493.915405 599.663147,484.900452 602.726440,475.918640 
	C603.153503,474.666412 603.613892,473.347107 603.637390,472.051239 
	C603.693909,468.932434 603.706970,465.870148 607.542419,464.934784 
	C611.380127,463.998932 614.806335,464.648865 617.503418,467.828491 
	C618.230164,468.685242 618.681091,469.887299 620.102173,470.166687 
	C622.203186,469.546661 623.461609,467.666229 625.119934,466.331085 
	C628.649902,463.489105 632.384949,461.487183 637.033203,463.528534 
	C641.693420,465.575165 642.886902,469.838074 643.045715,474.239197 
	C643.245667,479.777466 641.645813,485.088745 639.674622,490.254913 
	C638.071655,494.456055 636.485107,498.664124 634.956726,502.892792 
	C634.412598,504.398254 633.555847,505.948212 634.868652,507.915771 
	C639.109985,505.127136 642.027161,501.211090 643.309326,496.624451 
	C645.598633,488.435120 648.328064,480.401245 650.887024,472.306152 
	C651.335693,470.886932 651.956909,469.367188 651.834412,467.951324 
	C651.456299,463.580078 653.422485,461.221649 657.609131,460.862946 
	C662.012573,460.485657 665.481995,462.186096 667.172607,466.491852 
	C668.814392,470.673737 667.652649,474.786652 666.102844,478.647919 
	C662.878052,486.682404 659.353577,494.596649 655.948425,502.558685 
	C655.554626,503.479492 655.123718,504.388519 655.815247,505.821991 
	C658.440552,504.953461 659.883728,502.729950 661.298401,500.684082 
	C665.477051,494.641052 668.991089,488.224182 671.765686,481.397827 
	C672.684753,479.136536 673.704102,476.199768 677.078796,477.843597 
	C680.080139,479.305603 678.661499,481.672913 677.702148,483.854065 
	C673.934509,492.420746 669.719421,500.717896 663.579346,507.886139 
	C662.713196,508.897430 661.866821,509.937347 660.906982,510.854919 
	C654.513916,516.966675 650.129333,516.725281 642.926941,509.717010 
	C639.220032,511.687622 637.132935,515.956726 631.643738,517.264343 
	C641.993042,519.365234 651.549988,520.081909 658.415527,528.218811 
	C637.281738,520.514465 616.436218,519.681885 595.688171,530.314636 
	C597.039307,522.378418 613.648804,516.220398 628.578369,517.429321 
	C621.213623,512.124634 620.765198,504.965973 622.226074,497.365601 
	C623.523560,490.615448 626.627075,484.459686 628.968262,478.052948 
	C629.635315,476.227570 630.719360,474.460876 630.350830,472.378113 
	C628.854492,471.434021 628.105164,472.677979 627.377075,473.405701 
	C615.832520,484.944641 609.065918,498.938568 606.364319,514.938660 
	C605.732910,518.678162 603.019287,520.442078 599.147888,519.413391 
	C596.577026,518.730286 595.309204,516.348145 593.209229,515.177673 
	C582.005615,523.086914 580.969116,523.080627 572.937866,514.502869 
	C568.096741,520.924072 561.657349,524.036987 553.218628,522.624084 
	C556.420593,527.347961 560.274109,530.833435 565.608276,532.629028 
	C569.677307,533.998779 570.277344,536.152527 567.822571,539.728699 
	C563.732544,545.687134 556.421509,546.996277 549.645325,542.836365 
	C543.137695,538.841309 539.226746,532.571899 535.889648,526.022705 
	C531.581116,517.567139 527.718323,508.885345 523.584839,500.339050 
	C522.755737,498.624817 522.236816,496.148285 519.674133,496.411316 
	C517.341797,496.650696 516.794800,498.924591 516.071655,500.776581 
	C513.237122,508.035553 509.735809,515.061462 509.462128,523.129761 
	C509.356201,526.252197 505.569580,527.691650 502.006500,526.627014 
	C499.228851,525.796997 498.110504,523.113098 495.919159,521.566833 
	C492.937439,522.097168 491.186768,524.604431 488.708649,525.896179 
	C482.446564,529.160461 476.044067,530.808716 469.829224,526.395020 
	C463.607819,521.976746 462.366241,515.617554 463.365387,508.204315 
	C464.562958,499.319000 468.024048,491.568420 473.284180,484.528198 
	C477.962189,478.267120 484.090424,474.196106 492.022522,473.289429 
	C498.675842,472.528931 503.332672,477.712555 501.751282,484.256897 
	C499.264221,494.549194 492.099884,501.071381 483.517578,506.388245 
	C481.874634,507.406097 479.638031,507.782471 479.247223,510.635925 
M563.401733,489.909027 
	C561.170654,495.805084 558.802429,501.668823 559.334595,508.182220 
	C559.526550,510.531647 559.647522,513.237671 562.239075,513.981079 
	C564.726990,514.694702 565.909668,512.278687 567.138123,510.537445 
	C570.905945,505.196747 572.863464,498.969299 575.547363,493.104218 
	C577.167236,489.564209 579.193359,486.089844 579.361633,481.710144 
	C575.898193,481.316986 573.915344,478.841614 571.743347,476.473206 
	C567.562927,480.045105 565.905151,484.803619 563.401733,489.909027 
M487.263611,487.800018 
	C485.659912,491.103851 483.449921,494.177307 482.834961,498.347565 
	C490.499542,494.176208 494.375153,487.991455 493.471497,481.534515 
	C490.458954,482.416107 489.159119,484.925018 487.263611,487.800018 
z"/>
<path fill="#000000" opacity="1.000000" stroke="none" 
	d="
M504.081604,571.793762 
	C509.567596,571.800781 514.578308,572.035217 519.558960,571.748047 
	C523.396118,571.526794 525.259705,573.119202 526.474182,576.604614 
	C533.975403,598.131836 541.620850,619.608887 549.199890,641.109131 
	C554.290710,655.550537 559.356018,670.000916 564.416687,684.452942 
	C564.900635,685.834961 565.728882,687.184570 564.894897,689.343140 
	C557.281677,690.429565 549.369568,690.043884 541.483582,689.577393 
	C539.293640,689.447815 539.077209,687.075378 538.518921,685.369568 
	C535.619202,676.508545 532.649109,667.668701 529.911987,658.757385 
	C528.924927,655.543701 527.226990,654.209045 523.812256,654.264832 
	C513.985901,654.425293 504.153534,654.426270 494.327179,654.265991 
	C491.110046,654.213501 489.557190,655.409241 488.614502,658.454956 
	C485.809875,667.516418 482.650696,676.467957 479.832703,685.525574 
	C478.828857,688.752319 477.067749,690.091614 473.686768,689.981689 
	C468.195099,689.802979 462.692749,689.891968 457.195892,689.955627 
	C453.468109,689.998779 452.571777,688.585876 453.871979,685.018799 
	C464.760498,655.145569 475.540833,625.232971 486.349457,595.330627 
	C488.216125,590.166382 489.926819,584.941040 491.948425,579.838623 
	C495.267975,571.460144 493.247528,571.795776 504.081604,571.793762 
M511.405792,600.326111 
	C510.743988,599.053711 510.917938,597.341675 508.763794,596.116211 
	C504.691406,608.793823 500.675507,621.295593 496.507782,634.270020 
	C505.184845,634.270020 513.154907,634.270020 521.936646,634.270020 
	C518.358887,622.770447 514.978088,611.904053 511.405792,600.326111 
z"/>
<path fill="#000000" opacity="1.000000" stroke="none" 
	d="
M601.192627,571.953125 
	C604.505554,573.176147 603.329956,575.721619 603.336060,577.661926 
	C603.424377,605.971741 603.542053,634.283020 603.307373,662.591003 
	C603.264465,667.769775 604.874451,669.070984 609.851868,668.979370 
	C625.999878,668.682068 642.157776,668.964539 658.309326,668.788757 
	C662.713562,668.740845 664.873962,669.961304 664.387573,674.734985 
	C664.068604,677.866028 664.108582,681.077820 664.396790,684.215881 
	C664.803040,688.638245 662.953918,690.021423 658.666870,689.994690 
	C636.352783,689.855530 614.037292,689.929016 591.722290,689.926270 
	C589.224426,689.925964 586.720642,689.799866 584.229980,689.929749 
	C580.369446,690.131165 578.914856,688.420959 578.957092,684.579041 
	C579.090820,672.423828 578.996216,660.266235 579.001770,648.109558 
	C579.012329,625.128479 578.998169,602.147217 579.065979,579.166321 
	C579.087158,571.999939 579.351074,571.826965 586.285950,571.825623 
	C591.114868,571.824646 595.943787,571.864746 601.192627,571.953125 
z"/>
<path fill="#000000" opacity="1.000000" stroke="none" 
	d="
M681.740356,579.106812 
	C681.825073,571.851807 681.825012,571.839111 688.302002,571.796509 
	C692.299744,571.770203 696.317017,572.035583 700.290649,571.724121 
	C704.951782,571.358765 706.319031,573.255310 706.293823,577.777771 
	C706.138977,605.595947 706.215515,633.415405 706.217773,661.234436 
	C706.218445,668.858887 706.222656,668.857544 713.850342,668.855164 
	C729.508972,668.850281 745.169983,669.001587 760.824707,668.751587 
	C765.698181,668.673828 767.500977,670.392456 767.081604,675.132324 
	C766.818298,678.108765 766.790894,681.142578 767.036743,684.119324 
	C767.426880,688.842712 765.231445,690.086243 760.836182,690.044800 
	C742.347290,689.870117 723.855896,689.954590 705.365417,689.943542 
	C699.535095,689.940002 693.695862,689.734436 687.877136,689.991699 
	C683.063049,690.204529 681.615601,688.291138 681.639038,683.538757 
	C681.809998,648.890686 681.737061,614.241394 681.740356,579.106812 
z"/>
<path fill="#000000" opacity="1.000000" stroke="none" 
	d="
M373.482727,517.577759 
	C366.198883,512.813843 359.595245,507.752136 353.442444,502.126099 
	C350.478485,499.415863 347.687012,498.455505 344.345825,501.575378 
	C342.127930,503.646362 339.765350,504.957184 337.250977,501.549255 
	C334.843018,498.285431 334.060638,495.663361 337.807831,492.658356 
	C343.904907,487.768799 349.680389,482.479767 355.643463,477.420563 
	C357.175537,476.120697 358.864288,473.469452 361.009460,475.877380 
	C363.239014,478.380005 365.765137,481.267334 363.642700,485.196716 
	C363.490326,485.478760 363.179718,485.671936 362.959106,485.921051 
	C356.736359,492.946838 356.683899,493.422882 362.132294,501.107605 
	C368.523682,510.122284 377.959259,514.683899 388.262909,516.241333 
	C403.003998,518.469421 417.549377,517.022766 430.396240,508.174225 
	C438.128937,502.848145 443.603394,495.577209 447.870911,487.342499 
	C453.462097,476.553680 458.691498,465.566986 464.587921,454.949402 
	C472.033356,441.542603 482.552185,431.064026 496.467010,424.294769 
	C500.102997,422.525940 504.010437,421.634216 508.100342,422.580322 
	C510.568054,423.151184 512.728149,424.151886 513.530212,426.445648 
	C512.759277,428.377747 511.482391,428.282837 510.358948,428.371460 
	C491.150391,429.886658 480.029968,441.598083 472.272156,457.997528 
	C465.992035,471.273102 463.026245,485.791565 456.327454,498.897186 
	C450.533295,510.232941 443.328461,520.255554 431.915131,526.514282 
	C417.626282,534.349792 403.295990,532.059875 389.106384,526.151489 
	C383.723755,523.910278 378.625549,521.056763 373.482727,517.577759 
z"/>
<path fill="#000000" opacity="1.000000" stroke="none" 
	d="
M394.070343,471.736633 
	C400.113159,470.228546 404.114075,472.126282 406.009247,477.044281 
	C408.279907,482.936676 406.808228,490.015137 402.686340,492.355438 
	C399.997620,493.882019 397.309235,493.593536 394.779144,491.765533 
	C388.483032,487.216400 387.952637,477.489990 394.070343,471.736633 
z"/>
<path fill="#000000" opacity="1.000000" stroke="none" 
	d="
M436.406647,464.521301 
	C440.265991,468.242432 440.937256,472.575470 440.247345,477.224731 
	C439.744659,480.612183 437.806824,483.252655 434.567200,484.203186 
	C430.157867,485.496857 427.295654,482.865814 425.169952,479.353668 
	C422.097900,474.278046 422.589111,467.261993 426.307800,464.095428 
	C429.558380,461.327515 432.909760,461.214539 436.406647,464.521301 
z"/>
<path fill="#000000" opacity="1.000000" stroke="none" 
	d="
M656.423340,445.627563 
	C659.512817,438.778412 661.180115,437.916046 666.493896,440.155396 
	C671.998535,442.475159 673.263550,446.101990 670.709473,452.241180 
	C668.157227,458.375916 666.141724,459.553711 661.287109,457.747314 
	C655.736877,455.682129 654.060364,451.761383 656.423340,445.627563 
z"/>
<path fill="#000000" opacity="1.000000" stroke="none" 
	d="
M378.922974,479.607666 
	C377.751282,476.359680 377.597351,473.379120 377.735962,470.374268 
	C377.994843,464.763031 383.018280,460.027679 388.550323,460.069183 
	C390.089539,460.080750 391.111298,460.642548 391.493103,462.164032 
	C391.876892,463.693359 391.309692,465.049133 389.847382,465.313110 
	C382.287231,466.677856 382.382324,471.507721 384.123718,477.284515 
	C384.546539,478.687134 384.803253,480.320251 383.160767,481.303131 
	C381.338074,482.393860 380.011261,481.731903 378.922974,479.607666 
z"/>
<path fill="#000000" opacity="1.000000" stroke="none" 
	d="
M424.552124,444.249695 
	C432.942413,441.670441 439.832458,445.620422 441.924286,453.865936 
	C442.293396,455.320953 442.725372,456.968048 441.003937,457.825500 
	C439.249969,458.699158 438.229431,457.399414 437.406586,456.089203 
	C436.789642,455.106842 436.317993,454.034454 435.730225,453.032349 
	C433.657806,449.499054 430.973541,447.556610 426.676544,449.364716 
	C424.829193,450.142029 422.587036,450.970856 421.513733,448.440399 
	C420.558990,446.189453 422.533539,445.261993 424.552124,444.249695 
z"/>
</svg>