<svg version="1.1" id="Layer_1" xmlns="http://www.w3.org/2000/svg" xmlns:xlink="http://www.w3.org/1999/xlink" x="0px" y="0px"
	 width="100%" viewBox="0 0 500 500" enable-background="new 0 0 500 500" xml:space="preserve">
<path fill="#000000" opacity="1.000000" stroke="none" 
	d="
M462.000000,501.000000 
	C308.000031,501.000000 154.500076,501.000000 1.000082,501.000000 
	C1.000055,334.333405 1.000055,167.666824 1.000027,1.000172 
	C167.666550,1.000115 334.333099,1.000115 500.999756,1.000057 
	C500.999817,167.666519 500.999817,334.333038 500.999908,500.999756 
	C488.166656,501.000000 475.333344,501.000000 462.000000,501.000000 
M312.727844,254.024902 
	C313.819153,253.426697 314.910461,252.828506 316.399658,252.713242 
	C318.199432,252.375687 320.509888,252.631760 321.711029,251.598389 
	C327.066803,246.990677 330.984894,241.364365 331.876312,233.363297 
	C330.254456,232.854370 328.632599,232.345428 326.968140,231.098419 
	C326.947266,230.359451 326.926392,229.620483 327.001709,228.138153 
	C326.816345,226.623428 329.159851,225.207352 327.316162,223.085236 
	C327.687103,221.218201 328.857971,218.960602 328.193329,217.599182 
	C327.586182,216.355698 324.991821,216.082458 323.273224,215.381638 
	C322.529022,217.213013 321.733398,219.026077 321.070953,220.886566 
	C320.863525,221.469101 321.015076,222.179428 320.212494,222.959320 
	C318.138275,224.958572 316.064056,226.957840 313.543823,228.371078 
	C309.610229,225.848099 306.173004,226.312714 304.139313,229.311935 
	C301.127289,228.761414 298.808441,228.337585 296.921539,227.992706 
	C295.943817,230.501175 295.305145,232.139694 295.065247,232.755173 
	C292.254425,230.963058 290.142792,228.743149 287.699768,228.283173 
	C284.735657,227.725052 281.459473,228.467880 278.381073,229.006516 
	C276.522552,229.331726 274.783264,230.338181 272.226685,230.980347 
	C271.166962,230.004837 270.107239,229.029343 268.421844,227.714203 
	C266.909729,228.234619 265.397644,228.755035 263.171722,229.101227 
	C262.451691,228.023804 261.731689,226.946381 261.010620,225.157852 
	C261.202972,223.615967 261.912994,221.899155 261.465057,220.573624 
	C260.811035,218.638107 259.325348,216.983627 258.194183,215.209335 
	C256.787964,216.378967 254.669998,217.275055 254.097427,218.765030 
	C251.459778,225.628632 249.252975,232.657791 246.907211,239.581696 
	C245.770050,236.787643 244.979858,232.521606 243.803055,232.412155 
	C240.859283,232.138321 237.323318,233.098679 234.772720,234.731750 
	C228.194611,238.943497 227.374115,246.137390 227.074524,253.098831 
	C226.916000,256.782440 230.761414,259.591553 234.558044,258.962494 
	C237.378586,258.495178 240.075424,257.281219 242.439850,256.523956 
	C244.349258,257.302887 246.064438,258.002563 247.779602,258.702271 
	C248.439209,256.980865 249.053711,255.240494 249.768158,253.542145 
	C251.111603,250.348557 252.512726,247.179245 253.889877,243.999832 
	C254.404739,244.047684 254.919617,244.095535 255.434494,244.143372 
	C257.252563,247.968185 259.307159,251.701263 260.834534,255.638840 
	C263.261444,261.895355 268.609100,267.305176 273.221252,266.783600 
	C275.165558,266.563751 276.905792,264.538879 278.738800,263.334534 
	C277.700653,262.355042 276.588043,261.441498 275.645416,260.377380 
	C274.713196,259.325043 273.952637,258.120636 271.974365,255.427902 
	C277.634644,255.231934 281.851685,255.085938 286.712036,255.131546 
	C287.903748,255.684494 289.095459,256.237457 290.395966,256.840881 
	C290.331329,257.375885 290.189423,258.550293 290.047516,259.724701 
	C290.398712,260.147675 290.749878,260.570679 291.101044,260.993683 
	C294.463837,258.999817 297.826630,257.005951 302.066437,254.994827 
	C305.380341,254.719162 308.694275,254.443512 312.727844,254.024902 
M216.026688,219.130447 
	C215.114044,218.078766 214.229233,216.170151 213.283432,216.139404 
	C210.665344,216.054382 208.021835,216.752533 205.388382,217.141113 
	C205.639114,218.240997 205.889847,219.340881 206.586136,220.926224 
	C209.905472,219.317459 212.070801,221.126633 213.489807,223.981949 
	C211.629425,224.977463 209.769058,225.972977 207.981583,226.977646 
	C207.981583,226.977646 207.980591,226.904205 207.170807,226.979797 
	C207.069214,228.992218 206.967606,231.004654 207.005142,233.764923 
	C208.190262,237.122879 210.932236,238.009949 213.635422,236.593094 
	C216.808090,234.930176 216.729065,231.911057 214.949539,228.364944 
	C214.656754,227.890488 214.363953,227.416031 214.010117,227.000885 
	C214.010117,227.000885 214.089203,226.969330 214.232040,226.275391 
	C215.831772,225.283234 217.431519,224.291077 219.099472,223.256607 
	C218.037613,222.093597 217.048126,221.009827 216.013687,219.992844 
	C216.013687,219.992844 216.088608,219.963364 216.026688,219.130447 
M185.021362,226.897644 
	C185.021362,226.897644 184.960892,226.839615 184.205338,227.258499 
	C184.126404,229.375107 183.861984,231.507690 184.042358,233.601959 
	C184.140854,234.745499 184.765915,236.506302 185.558548,236.769669 
	C186.702087,237.149643 188.213806,236.421570 189.714371,236.138809 
	C189.967453,236.726532 190.493149,237.947342 191.311646,239.804245 
	C193.147827,240.386108 195.646988,241.983261 196.667892,241.316620 
	C198.279678,240.264114 200.024887,237.466858 199.693649,235.812546 
	C199.090820,232.801788 197.435745,229.581192 192.939346,229.392227 
	C192.574234,228.839478 192.209106,228.286713 192.007187,227.224228 
	C191.980713,226.689590 191.954224,226.154968 191.971786,224.837051 
	C188.641785,222.207138 186.715866,224.309204 185.021362,226.897644 
M202.001465,251.983963 
	C202.001465,251.983963 202.029236,251.906189 201.104706,252.006012 
	C193.829788,251.188507 186.554871,250.370987 178.954681,249.516922 
	C180.048019,250.480789 180.892807,251.225525 182.134338,252.571182 
	C183.920807,253.702850 185.688126,254.866119 187.496872,255.960999 
	C198.599304,262.681610 207.965042,263.665741 217.156937,253.047241 
	C221.272675,248.292740 224.240479,242.344742 226.854568,236.544189 
	C229.678406,230.278198 231.253372,223.555511 235.457901,217.785324 
	C238.532516,213.565765 242.248154,211.661469 247.099976,210.935608 
	C248.744568,210.689545 250.287354,209.762924 252.253571,209.001312 
	C251.264297,207.950119 251.079346,207.595764 250.799927,207.489304 
	C250.205780,207.262970 249.567139,207.142014 248.938705,207.018738 
	C242.631393,205.781570 237.895966,209.478882 234.409698,213.419968 
	C229.549805,218.913879 225.603806,225.373260 222.103912,231.870422 
	C218.369675,238.802612 215.463638,246.148529 207.250946,250.048660 
	C205.475571,250.683533 203.700180,251.318420 202.001465,251.983963 
M346.000397,326.046692 
	C345.999481,312.221680 346.026093,298.396576 345.957916,284.571869 
	C345.950531,283.075439 345.394287,281.581726 344.165619,280.042175 
	C340.770874,280.050323 337.376160,280.058502 333.204651,280.207306 
	C333.108643,283.277832 332.935883,286.348206 332.929718,289.418915 
	C332.900604,303.840210 332.885864,318.261780 332.965576,332.682678 
	C332.973694,334.148529 333.648193,335.610718 334.014648,336.973114 
	C334.014648,336.973114 333.914215,336.958588 334.258240,337.786438 
	C347.801270,338.026886 361.344330,338.267517 374.888153,338.446838 
	C374.894135,338.446899 374.912415,337.519501 374.971680,336.122040 
	C374.960999,333.407379 374.950317,330.692719 374.641144,327.152008 
	C365.102783,327.095123 355.564453,327.038239 346.000397,326.046692 
M284.258698,337.786591 
	C297.527130,337.867889 310.795532,337.957550 324.064056,337.977966 
	C324.368164,337.978455 324.673431,337.196594 324.987396,335.906616 
	C324.972290,333.266357 324.957184,330.626129 324.655396,327.153046 
	C315.112732,327.096588 305.570038,327.040131 296.001770,326.048767 
	C296.001770,310.408539 296.001770,294.768280 296.001770,278.521454 
	C291.259033,279.050232 287.181396,279.504852 282.944794,280.889893 
	C282.937317,298.150696 282.903412,315.411591 282.969849,332.672119 
	C282.975494,334.140900 283.650787,335.607086 284.019440,336.970306 
	C284.019440,336.970306 283.915833,336.958344 284.258698,337.786591 
M153.972168,326.923706 
	C153.974304,329.551514 153.763641,332.205078 154.077484,334.795105 
	C154.213577,335.918091 155.412643,337.790833 156.158890,337.805573 
	C159.029678,337.862396 161.912598,337.305267 165.249939,337.598969 
	C165.498856,329.947845 165.663956,322.292725 166.031693,314.647308 
	C166.218704,310.759308 166.770416,306.888824 167.624634,303.548645 
	C170.946259,313.785217 174.428589,323.973328 177.533661,334.275177 
	C179.644684,341.278992 185.143692,336.561676 188.905609,337.719818 
	C189.542587,337.915924 191.679489,335.125885 192.223541,333.427277 
	C195.399857,323.510071 198.308090,313.506989 201.306839,303.532898 
	C201.761292,303.505219 202.215729,303.477539 202.670181,303.449860 
	C203.102081,305.532318 203.876251,307.609711 203.906937,309.698059 
	C204.043015,318.966797 203.965897,328.238617 203.965897,338.325226 
	C208.099945,337.808380 211.443298,337.390381 215.239716,337.604462 
	C215.491928,336.910431 215.962891,336.216888 215.964386,335.522339 
	C216.001999,318.068665 216.004929,300.614777 215.949783,283.161194 
	C215.946564,282.141632 215.403320,281.123749 214.161819,280.067352 
	C208.557037,280.067352 202.952271,280.067352 197.652328,280.067352 
	C193.515274,294.614044 189.549820,308.557343 185.249420,323.678375 
	C184.243729,321.443939 183.592896,320.375458 183.267227,319.215729 
	C180.135910,308.065002 176.841263,296.952515 174.079681,285.709625 
	C173.043518,281.491180 171.586853,279.771057 166.905457,279.899261 
	C153.903824,280.255280 153.897018,280.006683 153.162689,293.318359 
	C153.098389,303.579498 153.015869,313.840668 153.013977,324.101807 
	C153.013855,324.733673 153.649719,325.365631 153.972168,326.923706 
M236.158783,296.784210 
	C231.394073,310.221710 226.629379,323.659241 221.476028,338.192780 
	C225.337997,337.835876 228.264618,337.092957 231.063599,337.425232 
	C234.637039,337.849426 235.412750,335.698090 235.830551,333.247223 
	C237.858765,321.349182 238.100082,321.096252 249.950684,321.067017 
	C251.775833,321.062531 253.733231,320.483521 255.389008,320.976990 
	C257.107422,321.489105 258.842743,322.729340 259.984222,324.129333 
	C260.809143,325.141052 260.448151,327.031281 261.014099,328.360168 
	C262.392426,331.596436 263.218781,335.998322 265.737274,337.559296 
	C268.305603,339.151123 272.628906,337.911407 277.356995,337.911407 
	C270.407532,317.880280 263.869598,299.035278 257.277435,280.034058 
	C254.905136,280.034058 252.722641,280.281189 250.616318,279.985626 
	C245.268417,279.235229 241.376389,280.322693 239.979904,286.360107 
	C239.211349,289.682861 237.644485,292.820953 236.158783,296.784210 
M177.223053,247.868835 
	C176.777542,245.370865 176.332031,242.872879 175.781815,239.787796 
	C176.474274,239.037064 177.699554,237.708649 179.167664,236.116974 
	C178.248627,234.678101 177.348282,233.268509 176.239777,231.532990 
	C172.599945,234.720352 169.445206,237.561142 166.203918,240.299469 
	C162.908005,243.083954 163.636017,245.163315 167.293137,246.211517 
	C169.519608,245.961868 171.442078,246.382172 173.341400,246.889099 
	C174.396912,247.170837 175.413864,247.597137 177.223053,247.868835 
z"/>
<path fill="#060B3A" opacity="1.000000" stroke="none" 
	d="
M164.791000,336.977051 
	C161.912598,337.305267 159.029678,337.862396 156.158890,337.805573 
	C155.412643,337.790833 154.213577,335.918091 154.077484,334.795105 
	C153.763641,332.205078 153.974304,329.551514 154.026367,325.993774 
	C154.050247,314.376678 154.019943,303.689575 153.989639,293.002441 
	C153.897018,280.006683 153.903824,280.255280 166.905457,279.899261 
	C171.586853,279.771057 173.043518,281.491180 174.079681,285.709625 
	C176.841263,296.952515 180.135910,308.065002 183.267227,319.215729 
	C183.592896,320.375458 184.243729,321.443939 185.249420,323.678375 
	C189.549820,308.557343 193.515274,294.614044 197.652328,280.067352 
	C202.952271,280.067352 208.557037,280.067352 214.605621,280.408905 
	C214.989731,281.177734 214.930069,281.604980 214.614227,282.353973 
	C214.256119,299.186127 214.145737,315.696564 214.086792,332.207153 
	C214.084717,332.792664 214.592422,333.380035 214.930817,334.340698 
	C214.928284,335.467377 214.857468,336.219910 214.786636,336.972412 
	C211.443298,337.390381 208.099945,337.808380 203.965897,338.325226 
	C203.965897,328.238617 204.043015,318.966797 203.906937,309.698059 
	C203.876251,307.609711 203.102081,305.532318 202.670181,303.449860 
	C202.215729,303.477539 201.761292,303.505219 201.306839,303.532898 
	C198.308090,313.506989 195.399857,323.510071 192.223541,333.427277 
	C191.679489,335.125885 189.542587,337.915924 188.905609,337.719818 
	C185.143692,336.561676 179.644684,341.278992 177.533661,334.275177 
	C174.428589,323.973328 170.946259,313.785217 167.341049,302.896545 
	C166.598892,301.601227 166.140305,300.957977 164.791000,299.065308 
	C164.791000,312.732330 164.791000,324.854675 164.791000,336.977051 
z"/>
<path fill="#121540" opacity="1.000000" stroke="none" 
	d="
M331.998108,234.119553 
	C330.984894,241.364365 327.066803,246.990677 321.711029,251.598389 
	C320.509888,252.631760 318.199432,252.375687 316.483765,252.318008 
	C314.613220,249.639252 313.387177,250.048492 310.485840,253.862915 
	C308.359802,253.888901 306.656525,253.863693 304.959015,253.385406 
	C304.977356,248.449814 304.989929,243.967285 305.366760,239.360687 
	C306.843658,236.393158 307.956329,233.549698 309.069000,230.706223 
	C308.572571,230.437454 308.076141,230.168671 307.579681,229.899902 
	C305.410370,232.888412 303.241089,235.876938 301.007843,239.236786 
	C299.632019,244.024368 298.320129,248.440628 296.664978,253.023376 
	C294.299591,253.189880 292.277496,253.189880 290.255432,253.189880 
	C290.199249,252.702744 290.143097,252.215622 290.086945,251.728485 
	C288.747528,252.798981 287.408112,253.869461 286.068695,254.939941 
	C281.851685,255.085938 277.634644,255.231934 271.974365,255.427902 
	C273.952637,258.120636 274.713196,259.325043 275.645416,260.377380 
	C276.588043,261.441498 277.700653,262.355042 278.738800,263.334534 
	C276.905792,264.538879 275.165558,266.563751 273.221252,266.783600 
	C268.609100,267.305176 263.261444,261.895355 260.834534,255.638840 
	C259.307159,251.701263 257.252563,247.968185 255.434494,244.143372 
	C254.919617,244.095535 254.404739,244.047684 253.889877,243.999832 
	C252.512726,247.179245 251.111603,250.348557 249.768158,253.542145 
	C249.053711,255.240494 248.439209,256.980865 247.779602,258.702271 
	C246.064438,258.002563 244.349258,257.302887 242.439850,256.523956 
	C240.075424,257.281219 237.378586,258.495178 234.558044,258.962494 
	C230.761414,259.591553 226.916000,256.782440 227.074524,253.098831 
	C227.374115,246.137390 228.194611,238.943497 234.772720,234.731750 
	C237.323318,233.098679 240.859283,232.138321 243.803055,232.412155 
	C244.979858,232.521606 245.770050,236.787643 246.907211,239.581696 
	C249.252975,232.657791 251.459778,225.628632 254.097427,218.765030 
	C254.669998,217.275055 256.787964,216.378967 258.194183,215.209351 
	C259.325348,216.983627 260.811035,218.638107 261.465057,220.573624 
	C261.912994,221.899155 261.202972,223.615967 260.753723,225.762390 
	C258.867706,229.398438 257.238617,232.429962 255.609528,235.461487 
	C256.337463,236.075943 257.065399,236.690384 257.793304,237.304825 
	C259.824066,234.628357 261.854797,231.951904 263.885529,229.275452 
	C265.397644,228.755035 266.909729,228.234619 268.762268,228.297211 
	C270.682678,234.299362 265.297974,235.065887 262.998840,238.142609 
	C262.546204,238.896759 262.150665,239.440140 261.404968,240.125259 
	C259.201599,243.146912 261.966583,244.788284 263.121185,247.026520 
	C263.900513,247.417160 264.402008,247.717361 265.286072,247.984161 
	C265.772186,246.970581 265.875763,245.990402 265.998413,244.639435 
	C266.665894,242.261719 267.314301,240.254791 268.268860,238.080322 
	C270.046783,235.621384 271.518585,233.329956 272.990387,231.038544 
	C274.783264,230.338181 276.522552,229.331726 278.381073,229.006516 
	C281.459473,228.467880 284.735657,227.725052 287.699768,228.283173 
	C290.142792,228.743149 292.254425,230.963058 295.065247,232.755173 
	C295.305145,232.139694 295.943817,230.501175 296.921539,227.992706 
	C298.808441,228.337585 301.127289,228.761414 304.139313,229.311935 
	C306.173004,226.312714 309.610229,225.848099 313.707336,229.074600 
	C317.485199,236.417099 310.110870,240.800034 310.231720,247.945663 
	C311.993652,246.550201 313.336334,245.861374 314.112640,244.769760 
	C314.939240,243.607498 315.381927,242.100815 315.725433,240.680008 
	C316.701904,236.641342 317.404816,232.531036 318.530701,228.537827 
	C318.820709,227.509247 320.503052,225.944916 321.148285,226.117035 
	C323.169373,226.656113 325.000671,227.906631 326.905518,228.881516 
	C326.926392,229.620483 326.947266,230.359451 326.660217,231.623917 
	C324.247009,237.240829 322.141693,242.332245 320.036407,247.423660 
	C320.552307,247.676315 321.068207,247.928955 321.584106,248.181610 
	C323.830902,244.464417 325.964203,240.670792 328.386963,237.072083 
	C329.218292,235.837204 330.773560,235.089706 331.998108,234.119553 
M238.772217,247.042999 
	C234.980225,248.510086 234.102570,251.070541 235.790939,254.992828 
	C240.334473,253.768814 242.685669,251.363678 242.225418,246.180466 
	C242.763031,245.997696 243.465591,245.960785 243.792206,245.591431 
	C244.124008,245.216202 244.085068,244.513123 244.208496,243.953629 
	C243.092621,244.230652 241.896133,244.345306 240.890549,244.844528 
	C240.270630,245.152313 239.941910,246.046677 238.772217,247.042999 
M273.979950,244.640244 
	C273.560730,247.284698 274.600830,247.862488 276.833618,246.024979 
	C276.993073,245.458282 277.026184,244.480331 277.330963,244.386719 
	C281.688354,243.048218 283.090057,239.607300 283.878540,236.058502 
	C282.294464,234.870407 281.000580,233.899963 279.141296,232.505463 
	C277.387970,236.429916 275.697968,240.212540 273.979950,244.640244 
z"/>
<path fill="#090D3B" opacity="1.000000" stroke="none" 
	d="
M236.298157,296.413269 
	C237.644485,292.820953 239.211349,289.682861 239.979904,286.360107 
	C241.376389,280.322693 245.268417,279.235229 250.616318,279.985626 
	C252.722641,280.281189 254.905136,280.034058 257.277435,280.034058 
	C263.869598,299.035278 270.407532,317.880280 277.356995,337.911407 
	C272.628906,337.911407 268.305603,339.151123 265.737274,337.559296 
	C263.218781,335.998322 262.392426,331.596436 261.014099,328.360168 
	C260.448151,327.031281 260.809143,325.141052 259.984222,324.129333 
	C258.842743,322.729340 257.107422,321.489105 255.389008,320.976990 
	C253.733231,320.483521 251.775833,321.062531 249.950684,321.067017 
	C238.100082,321.096252 237.858765,321.349182 235.830551,333.247223 
	C235.412750,335.698090 234.637039,337.849426 231.063599,337.425232 
	C228.264618,337.092957 225.337997,337.835876 221.476028,338.192780 
	C226.629379,323.659241 231.394073,310.221710 236.298157,296.413269 
M244.996277,304.058563 
	C244.369644,306.221436 243.743011,308.384277 242.988708,310.987793 
	C246.682159,310.987793 249.382065,311.311340 251.936005,310.841461 
	C253.088501,310.629486 254.988693,308.526276 254.774963,307.812531 
	C253.417587,303.279785 251.564178,298.895569 249.874283,294.462372 
	C249.358170,294.522339 248.842072,294.582306 248.325958,294.642273 
	C247.368576,297.670227 246.411194,300.698151 244.996277,304.058563 
z"/>
<path fill="#030837" opacity="1.000000" stroke="none" 
	d="
M324.942078,327.985901 
	C324.957184,330.626129 324.972290,333.266357 324.521301,336.404541 
	C310.675385,336.921082 297.295624,336.939697 283.915833,336.958313 
	C283.915833,336.958344 284.019440,336.970306 284.062378,336.550720 
	C284.115417,317.455048 284.125549,298.778961 284.586548,280.037354 
	C288.294037,279.971863 291.550720,279.971863 295.166779,279.971863 
	C295.166779,296.029022 295.166779,311.475891 295.321838,327.321899 
	C305.298615,327.809265 315.120361,327.897583 324.942078,327.985901 
z"/>
<path fill="#030837" opacity="1.000000" stroke="none" 
	d="
M374.939636,327.978058 
	C374.950317,330.692719 374.960999,333.407379 374.488556,336.529297 
	C360.641693,336.943878 347.277954,336.951233 333.914215,336.958588 
	C333.914215,336.958588 334.014648,336.973114 334.064301,336.552612 
	C334.069763,317.443634 334.025574,298.755157 333.981384,280.066650 
	C337.376160,280.058502 340.770874,280.050323 344.590698,280.524811 
	C345.067047,296.312347 345.118317,311.617279 345.324188,327.321228 
	C355.299042,327.806213 365.119354,327.892120 374.939636,327.978058 
z"/>
<path fill="#F1561A" opacity="1.000000" stroke="none" 
	d="
M208.034683,250.150772 
	C215.463638,246.148529 218.369675,238.802612 222.103912,231.870422 
	C225.603806,225.373260 229.549805,218.913879 234.409698,213.419968 
	C237.895966,209.478882 242.631393,205.781570 248.938705,207.018738 
	C249.567139,207.142014 250.205780,207.262970 250.799927,207.489304 
	C251.079346,207.595764 251.264297,207.950119 252.253571,209.001312 
	C250.287354,209.762924 248.744568,210.689545 247.099976,210.935608 
	C242.248154,211.661469 238.532516,213.565765 235.457901,217.785324 
	C231.253372,223.555511 229.678406,230.278198 226.854568,236.544189 
	C224.240479,242.344742 221.272675,248.292740 217.156937,253.047241 
	C207.965042,263.665741 198.599304,262.681610 187.496872,255.960999 
	C185.688126,254.866119 183.920807,253.702850 182.369461,252.177567 
	C184.769745,252.340363 186.906036,253.107376 189.106140,253.408783 
	C193.511398,254.012329 198.089813,255.516708 202.029236,251.906189 
	C202.029236,251.906189 202.001465,251.983963 202.281830,252.201691 
	C204.386353,251.663193 206.210526,250.906982 208.034683,250.150772 
z"/>
<path fill="#F1561A" opacity="1.000000" stroke="none" 
	d="
M176.835617,247.913574 
	C175.413864,247.597137 174.396912,247.170837 173.341400,246.889099 
	C171.442078,246.382172 169.519608,245.961868 167.293137,246.211517 
	C163.636017,245.163315 162.908005,243.083954 166.203918,240.299469 
	C169.445206,237.561142 172.599945,234.720352 176.239777,231.532990 
	C177.348282,233.268509 178.248627,234.678101 179.167664,236.116974 
	C177.699554,237.708649 176.474274,239.037064 175.781815,239.787796 
	C176.332031,242.872879 176.777542,245.370865 176.835617,247.913574 
z"/>
<path fill="#EAECEF" opacity="1.000000" stroke="none" 
	d="
M326.953613,228.509827 
	C325.000671,227.906631 323.169373,226.656113 321.148285,226.117035 
	C320.503052,225.944916 318.820709,227.509247 318.530701,228.537827 
	C317.404816,232.531036 316.701904,236.641342 315.725433,240.680008 
	C315.381927,242.100815 314.939240,243.607498 314.112640,244.769760 
	C313.336334,245.861374 311.993652,246.550201 310.231720,247.945663 
	C310.110870,240.800034 317.485199,236.417099 313.930359,229.367615 
	C316.064056,226.957840 318.138275,224.958572 320.992920,222.983795 
	C323.574829,223.213043 325.376373,223.417786 327.177887,223.622528 
	C329.159851,225.207352 326.816345,226.623428 326.953613,228.509827 
z"/>
<path fill="#F1561A" opacity="1.000000" stroke="none" 
	d="
M193.181213,230.028610 
	C197.435745,229.581192 199.090820,232.801788 199.693649,235.812546 
	C200.024887,237.466858 198.279678,240.264114 196.667892,241.316620 
	C195.646988,241.983261 193.147827,240.386108 191.287247,239.077545 
	C191.902298,235.576767 192.541763,232.802689 193.181213,230.028610 
z"/>
<path fill="#F1561A" opacity="1.000000" stroke="none" 
	d="
M214.839264,229.005035 
	C216.729065,231.911057 216.808090,234.930176 213.635422,236.593094 
	C210.932236,238.009949 208.190262,237.122879 206.997467,232.986359 
	C207.320053,230.439926 207.650314,228.672073 207.980591,226.904205 
	C207.980591,226.904205 207.981583,226.977646 208.382614,227.132874 
	C210.552170,227.181854 212.320679,227.075592 214.089203,226.969330 
	C214.089203,226.969330 214.010117,227.000885 213.743515,227.186279 
	C213.931030,227.916107 214.385147,228.460571 214.839264,229.005035 
z"/>
<path fill="#EAECEF" opacity="1.000000" stroke="none" 
	d="
M286.390381,255.035736 
	C287.408112,253.869461 288.747528,252.798981 290.086945,251.728485 
	C290.143097,252.215622 290.199249,252.702744 290.255432,253.189880 
	C292.277496,253.189880 294.299591,253.189880 297.076477,253.076691 
	C299.874115,253.228470 301.916962,253.493439 303.622894,253.823654 
	C302.587097,254.263306 301.888245,254.637695 301.189392,255.012100 
	C297.826630,257.005951 294.463837,258.999817 291.101044,260.993683 
	C290.749878,260.570679 290.398712,260.147675 290.047516,259.724701 
	C290.189423,258.550293 290.331329,257.375885 290.395966,256.840881 
	C289.095459,256.237457 287.903748,255.684494 286.390381,255.035736 
z"/>
<path fill="#A0A1AF" opacity="1.000000" stroke="none" 
	d="
M333.593018,280.136963 
	C334.025574,298.755157 334.069763,317.443634 334.063721,336.603363 
	C333.648193,335.610718 332.973694,334.148529 332.965576,332.682678 
	C332.885864,318.261780 332.900604,303.840210 332.929718,289.418915 
	C332.935883,286.348206 333.108643,283.277832 333.593018,280.136963 
z"/>
<path fill="#EAECEF" opacity="1.000000" stroke="none" 
	d="
M295.166779,326.922791 
	C295.166779,311.475891 295.166779,296.029022 295.166779,279.971863 
	C291.550720,279.971863 288.294037,279.971863 284.327087,280.012054 
	C283.445770,280.021301 283.274750,279.990356 283.103760,279.959473 
	C287.181396,279.504852 291.259033,279.050232 296.001770,278.521454 
	C296.001770,294.768280 296.001770,310.408539 295.801636,326.470581 
	C295.601471,326.892395 295.166779,326.922791 295.166779,326.922791 
z"/>
<path fill="#EAECEF" opacity="1.000000" stroke="none" 
	d="
M331.937195,233.741425 
	C330.773560,235.089706 329.218292,235.837204 328.386963,237.072083 
	C325.964203,240.670792 323.830902,244.464417 321.584106,248.181610 
	C321.068207,247.928955 320.552307,247.676315 320.036407,247.423660 
	C322.141693,242.332245 324.247009,237.240829 326.681519,231.992950 
	C328.632599,232.345428 330.254456,232.854370 331.937195,233.741425 
z"/>
<path fill="#A0A1AF" opacity="1.000000" stroke="none" 
	d="
M215.013184,337.288452 
	C214.857468,336.219910 214.928284,335.467377 214.997437,333.878601 
	C214.953964,316.039001 214.912170,299.035614 214.870392,282.032257 
	C214.930069,281.604980 214.989731,281.177734 215.080399,280.427795 
	C215.403320,281.123749 215.946564,282.141632 215.949783,283.161194 
	C216.004929,300.614777 216.001999,318.068665 215.964386,335.522339 
	C215.962891,336.216888 215.491928,336.910431 215.013184,337.288452 
z"/>
<path fill="#A0A1AF" opacity="1.000000" stroke="none" 
	d="
M283.024292,280.424683 
	C283.274750,279.990356 283.445770,280.021301 283.876251,280.077545 
	C284.125549,298.778961 284.115417,317.455048 284.060150,336.602844 
	C283.650787,335.607086 282.975494,334.140900 282.969849,332.672119 
	C282.903412,315.411591 282.937317,298.150696 283.024292,280.424683 
z"/>
<path fill="#121540" opacity="1.000000" stroke="none" 
	d="
M327.247009,223.353882 
	C325.376373,223.417786 323.574829,223.213043 321.387817,222.919769 
	C321.015076,222.179428 320.863525,221.469101 321.070953,220.886566 
	C321.733398,219.026077 322.529022,217.213013 323.273224,215.381638 
	C324.991821,216.082458 327.586182,216.355698 328.193329,217.599182 
	C328.857971,218.960602 327.687103,221.218201 327.247009,223.353882 
z"/>
<path fill="#EAECEF" opacity="1.000000" stroke="none" 
	d="
M345.169617,326.922180 
	C345.118317,311.617279 345.067047,296.312347 345.054199,280.547089 
	C345.394287,281.581726 345.950531,283.075439 345.957916,284.571869 
	C346.026093,298.396576 345.999481,312.221680 345.801331,326.467957 
	C345.602295,326.889252 345.169617,326.922180 345.169617,326.922180 
z"/>
<path fill="#EAECEF" opacity="1.000000" stroke="none" 
	d="
M201.566971,251.956100 
	C198.089813,255.516708 193.511398,254.012329 189.106140,253.408783 
	C186.906036,253.107376 184.769745,252.340363 182.171097,251.877106 
	C180.892807,251.225525 180.048019,250.480789 178.954681,249.516922 
	C186.554871,250.370987 193.829788,251.188507 201.566971,251.956100 
z"/>
<path fill="#EAECEF" opacity="1.000000" stroke="none" 
	d="
M193.060272,229.710419 
	C192.541763,232.802689 191.902298,235.576767 191.140839,238.759491 
	C190.493149,237.947342 189.967453,236.726532 189.714371,236.138809 
	C188.213806,236.421570 186.702087,237.149643 185.558548,236.769669 
	C184.765915,236.506302 184.140854,234.745499 184.042358,233.601959 
	C183.861984,231.507690 184.126404,229.375107 184.963730,227.327209 
	C185.791016,229.991104 185.859909,232.586304 185.914291,234.634857 
	C188.159332,232.022095 190.001663,229.878021 191.843994,227.733948 
	C192.209106,228.286713 192.574234,228.839478 193.060272,229.710419 
z"/>
<path fill="#EAECEF" opacity="1.000000" stroke="none" 
	d="
M334.086243,337.372498 
	C347.277954,336.951233 360.641693,336.943878 374.465210,336.980957 
	C374.912415,337.519501 374.894135,338.446899 374.888153,338.446838 
	C361.344330,338.267517 347.801270,338.026886 334.086243,337.372498 
z"/>
<path fill="#A0A1AF" opacity="1.000000" stroke="none" 
	d="
M165.020477,337.288025 
	C164.791000,324.854675 164.791000,312.732330 164.791000,299.065308 
	C166.140305,300.957977 166.598892,301.601227 167.107361,302.627441 
	C166.770416,306.888824 166.218704,310.759308 166.031693,314.647308 
	C165.663956,322.292725 165.498856,329.947845 165.020477,337.288025 
z"/>
<path fill="#EAECEF" opacity="1.000000" stroke="none" 
	d="
M284.087280,337.372437 
	C297.295624,336.939697 310.675385,336.921082 324.516663,336.841064 
	C324.673431,337.196594 324.368164,337.978455 324.064056,337.977966 
	C310.795532,337.957550 297.527130,337.867889 284.087280,337.372437 
z"/>
<path fill="#F1561A" opacity="1.000000" stroke="none" 
	d="
M191.925583,227.479095 
	C190.001663,229.878021 188.159332,232.022095 185.914291,234.634857 
	C185.859909,232.586304 185.791016,229.991104 185.341507,227.117767 
	C184.960892,226.839615 185.021362,226.897644 185.225037,227.249725 
	C187.595047,226.941330 189.761398,226.280838 191.927750,225.620331 
	C191.954224,226.154968 191.980713,226.689590 191.925583,227.479095 
z"/>
<path fill="#F1561A" opacity="1.000000" stroke="none" 
	d="
M214.062393,223.450424 
	C212.070801,221.126633 209.905472,219.317459 206.499542,220.328949 
	C207.778625,218.841156 209.246216,217.105209 210.486496,217.254730 
	C212.434402,217.489532 214.229065,218.995605 216.088608,219.963364 
	C216.088608,219.963364 216.013687,219.992844 215.770004,220.263718 
	C215.038345,221.506531 214.550369,222.478485 214.062393,223.450424 
z"/>
<path fill="#EAECEF" opacity="1.000000" stroke="none" 
	d="
M263.528625,229.188339 
	C261.854797,231.951904 259.824066,234.628357 257.793304,237.304825 
	C257.065399,236.690384 256.337463,236.075943 255.609528,235.461487 
	C257.238617,232.429962 258.867706,229.398438 260.754242,226.117935 
	C261.731689,226.946381 262.451691,228.023804 263.528625,229.188339 
z"/>
<path fill="#EAECEF" opacity="1.000000" stroke="none" 
	d="
M272.608521,231.009430 
	C271.518585,233.329956 270.046783,235.621384 267.868408,237.979889 
	C265.793182,238.008606 264.424561,237.970215 263.055969,237.931824 
	C265.297974,235.065887 270.682678,234.299362 269.075073,228.467026 
	C270.107239,229.029343 271.166962,230.004837 272.608521,231.009430 
z"/>
<path fill="#EAECEF" opacity="1.000000" stroke="none" 
	d="
M153.576172,293.160400 
	C154.019943,303.689575 154.050247,314.376678 154.035110,325.530701 
	C153.649719,325.365631 153.013855,324.733673 153.013977,324.101807 
	C153.015869,313.840668 153.098389,303.579498 153.576172,293.160400 
z"/>
<path fill="#A0A1AF" opacity="1.000000" stroke="none" 
	d="
M345.324188,327.321228 
	C345.169617,326.922180 345.602295,326.889252 345.814209,326.935303 
	C355.564453,327.038239 365.102783,327.095123 374.790405,327.565033 
	C365.119354,327.892120 355.299042,327.806213 345.324188,327.321228 
z"/>
<path fill="#A0A1AF" opacity="1.000000" stroke="none" 
	d="
M295.321838,327.321899 
	C295.166779,326.922791 295.601471,326.892395 295.814423,326.938049 
	C305.570038,327.040131 315.112732,327.096588 324.798737,327.569458 
	C315.120361,327.897583 305.298615,327.809265 295.321838,327.321899 
z"/>
<path fill="#EAECEF" opacity="1.000000" stroke="none" 
	d="
M213.776093,223.716187 
	C214.550369,222.478485 215.038345,221.506531 215.792480,220.230331 
	C217.048126,221.009827 218.037613,222.093597 219.099472,223.256607 
	C217.431519,224.291077 215.831772,225.283234 214.160614,226.622375 
	C212.320679,227.075592 210.552170,227.181854 208.346161,227.128296 
	C209.769058,225.972977 211.629425,224.977463 213.776093,223.716187 
z"/>
<path fill="#EAECEF" opacity="1.000000" stroke="none" 
	d="
M216.057648,219.546906 
	C214.229065,218.995605 212.434402,217.489532 210.486496,217.254730 
	C209.246216,217.105209 207.778625,218.841156 206.276764,220.086227 
	C205.889847,219.340881 205.639114,218.240997 205.388367,217.141113 
	C208.021835,216.752533 210.665344,216.054382 213.283432,216.139404 
	C214.229233,216.170151 215.114044,218.078766 216.057648,219.546906 
z"/>
<path fill="#EAECEF" opacity="1.000000" stroke="none" 
	d="
M310.908630,253.811722 
	C313.387177,250.048492 314.613220,249.639252 316.284821,252.076538 
	C314.910461,252.828506 313.819153,253.426697 312.094757,254.002502 
	C311.277313,253.923965 311.092987,253.867844 310.908630,253.811722 
z"/>
<path fill="#F1561A" opacity="1.000000" stroke="none" 
	d="
M310.485840,253.862915 
	C311.092987,253.867844 311.277313,253.923965 311.734924,254.073975 
	C308.694275,254.443512 305.380341,254.719162 301.627930,255.003464 
	C301.888245,254.637695 302.587097,254.263306 303.865936,253.910278 
	C304.615021,253.900589 304.784149,253.869522 304.953247,253.838470 
	C306.656525,253.863693 308.359802,253.888901 310.485840,253.862915 
z"/>
<path fill="#EAECEF" opacity="1.000000" stroke="none" 
	d="
M191.949768,225.228699 
	C189.761398,226.280838 187.595047,226.941330 185.185242,227.262421 
	C186.715866,224.309204 188.641785,222.207138 191.949768,225.228699 
z"/>
<path fill="#EAECEF" opacity="1.000000" stroke="none" 
	d="
M207.642822,250.099716 
	C206.210526,250.906982 204.386353,251.663193 202.243500,252.186340 
	C203.700180,251.318420 205.475571,250.683533 207.642822,250.099716 
z"/>
<path fill="#EAECEF" opacity="1.000000" stroke="none" 
	d="
M207.575684,226.942001 
	C207.650314,228.672073 207.320053,230.439926 206.927887,232.612427 
	C206.967606,231.004654 207.069214,228.992218 207.575684,226.942001 
z"/>
<path fill="#EAECEF" opacity="1.000000" stroke="none" 
	d="
M214.894409,228.684998 
	C214.385147,228.460571 213.931030,227.916107 213.774033,227.156616 
	C214.363953,227.416031 214.656754,227.890488 214.894409,228.684998 
z"/>
<path fill="#030837" opacity="1.000000" stroke="none" 
	d="
M214.614227,282.353973 
	C214.912170,299.035614 214.953964,316.039001 214.929138,333.504456 
	C214.592422,333.380035 214.084717,332.792664 214.086792,332.207153 
	C214.145737,315.696564 214.256119,299.186127 214.614227,282.353973 
z"/>
<path fill="#000000" opacity="1.000000" stroke="none" 
	d="
M304.959015,253.385406 
	C304.784149,253.869522 304.615021,253.900589 304.202881,253.845032 
	C301.916962,253.493439 299.874115,253.228470 297.419739,252.910202 
	C298.320129,248.440628 299.632019,244.024368 301.310883,239.366333 
	C302.786072,239.244598 303.894318,239.364670 305.002533,239.484741 
	C304.989929,243.967285 304.977356,248.449814 304.959015,253.385406 
z"/>
<path fill="#EAECEF" opacity="1.000000" stroke="none" 
	d="
M274.007996,243.995178 
	C275.697968,240.212540 277.387970,236.429916 279.141296,232.505463 
	C281.000580,233.899963 282.294464,234.870407 283.878540,236.058502 
	C283.090057,239.607300 281.688354,243.048218 277.330963,244.386719 
	C277.026184,244.480331 276.993073,245.458282 276.645569,246.056610 
	C275.640991,245.390564 274.824493,244.692871 274.007996,243.995178 
z"/>
<path fill="#000000" opacity="1.000000" stroke="none" 
	d="
M241.881958,246.615662 
	C242.685669,251.363678 240.334473,253.768814 235.790939,254.992828 
	C234.102570,251.070541 234.980225,248.510086 239.415253,246.744965 
	C240.666183,246.503174 241.274063,246.559418 241.881958,246.615662 
z"/>
<path fill="#EAECEF" opacity="1.000000" stroke="none" 
	d="
M305.366760,239.360687 
	C303.894318,239.364670 302.786072,239.244598 301.374817,238.994995 
	C303.241089,235.876938 305.410370,232.888412 307.579681,229.899902 
	C308.076141,230.168671 308.572571,230.437454 309.069000,230.706223 
	C307.956329,233.549698 306.843658,236.393158 305.366760,239.360687 
z"/>
<path fill="#EAECEF" opacity="1.000000" stroke="none" 
	d="
M262.843384,246.936066 
	C261.966583,244.788284 259.201599,243.146912 261.622681,240.511688 
	C263.930695,240.944611 265.794830,240.964951 264.902557,243.684860 
	C264.806580,243.977417 265.599030,244.561417 265.979340,245.010239 
	C265.875763,245.990402 265.772186,246.970581 265.315247,247.635498 
	C264.255737,247.192200 263.549561,247.064117 262.843384,246.936066 
z"/>
<path fill="#000000" opacity="1.000000" stroke="none" 
	d="
M265.998413,244.639435 
	C265.599030,244.561417 264.806580,243.977417 264.902557,243.684860 
	C265.794830,240.964951 263.930695,240.944611 261.972870,240.369965 
	C262.150665,239.440140 262.546204,238.896759 262.998840,238.142593 
	C264.424561,237.970215 265.793182,238.008606 267.562225,238.147430 
	C267.314301,240.254791 266.665894,242.261719 265.998413,244.639435 
z"/>
<path fill="#EAECEF" opacity="1.000000" stroke="none" 
	d="
M242.053680,246.398056 
	C241.274063,246.559418 240.666183,246.503174 239.770355,246.562317 
	C239.941910,246.046677 240.270630,245.152313 240.890549,244.844528 
	C241.896133,244.345306 243.092621,244.230652 244.208496,243.953613 
	C244.085068,244.513123 244.124008,245.216202 243.792206,245.591431 
	C243.465591,245.960785 242.763031,245.997696 242.053680,246.398056 
z"/>
<path fill="#000000" opacity="1.000000" stroke="none" 
	d="
M273.993958,244.317719 
	C274.824493,244.692871 275.640991,245.390564 276.668152,246.387711 
	C274.600830,247.862488 273.560730,247.284698 273.993958,244.317719 
z"/>
<path fill="#000000" opacity="1.000000" stroke="none" 
	d="
M263.121185,247.026505 
	C263.549561,247.064117 264.255737,247.192200 264.932739,247.668915 
	C264.402008,247.717361 263.900513,247.417160 263.121185,247.026505 
z"/>
<path fill="#000000" opacity="1.000000" stroke="none" 
	d="
M245.225037,303.892334 
	C246.411194,300.698151 247.368576,297.670227 248.325958,294.642273 
	C248.842072,294.582306 249.358170,294.522339 249.874283,294.462372 
	C251.564178,298.895569 253.417587,303.279785 254.774963,307.812531 
	C254.988693,308.526276 253.088501,310.629486 251.936005,310.841461 
	C249.382065,311.311340 246.682159,310.987793 242.988708,310.987793 
	C243.743011,308.384277 244.369644,306.221436 245.225037,303.892334 
z"/>
</svg>